<svg t="1631330180940" class="icon" viewBox="0 0 1024 1024" version="1.1" xmlns="http://www.w3.org/2000/svg" p-id="2190" width="300" height="300"><path d="M311.456 524.8l59.744 59.744 98.144-98.144v452.256h85.344V486.4l98.144 98.144 59.744-59.744-200.544-200.544z" p-id="2191" fill="#8a8a8a"></path><path d="M806.4 256c-21.344-145.056-145.056-256-294.4-256S234.656 110.944 217.6 256C93.856 264.544 0 366.944 0 490.656c0 128 106.656 234.656 234.656 234.656h64v-85.344h-64c-85.344 0-149.344-64-149.344-149.344s64-149.344 149.344-149.344h4.256l59.744 29.856V298.592c0-119.456 93.856-213.344 213.344-213.344s213.344 93.856 213.344 213.344v72.544l59.744-29.856h4.256c85.344 0 149.344 64 149.344 149.344s-64 149.344-149.344 149.344h-64v85.344h64c128 0 234.656-106.656 234.656-234.656 0-123.744-93.856-226.144-217.6-234.656z" p-id="2192" fill="#8a8a8a"></path></svg>